<?xml version="1.0" encoding="UTF-8" standalone="no"?>
<!DOCTYPE svg PUBLIC "-//W3C//DTD SVG 1.1//EN" "http://www.w3.org/Graphics/SVG/1.1/DTD/svg11.dtd">
<svg width="100%" height="100%" viewBox="0 0 4529 3508" version="1.1" xmlns="http://www.w3.org/2000/svg" xmlns:xlink="http://www.w3.org/1999/xlink" xml:space="preserve" xmlns:serif="http://www.serif.com/" style="fill-rule:evenodd;clip-rule:evenodd;stroke-linecap:round;stroke-linejoin:round;">
    <g id="IN_Logo01" transform="matrix(1.82587,0,0,1,0,0)">
        <rect x="0" y="0" width="2480.32" height="3507.87" style="fill:none;"/>
        <g transform="matrix(0.547685,0,0,1,0,0)">
            <g id="N">
                <path d="M3400,3400L3399.39,3400L1657.94,1287.5L1657.94,2784.54L1563.72,2784.54L1563.72,601.859L2203.88,601.859L3316.67,1950L3312.56,601.857L3400,601.857L3400,3400ZM1657.94,1149.99L1657.94,1149.99L1657.94,1149.99L3312.56,3157.17L3312.56,2084.26L2162.44,689.037L1657.94,689.037L1657.94,1149.99ZM1657.94,1287.5L1657.94,1287.45L1657.94,1287.5Z" style="fill:rgb(38,67,209);stroke:black;stroke-width:0.5px;"/>
            </g>
        </g>
        <g transform="matrix(0.547685,0,0,1,0,0)">
            <g id="I">
                <g>
                    <path d="M1386.98,2786.2L600,2786.2L600,600.148L1386.98,600.148L1386.98,2786.2ZM1298.83,2700.21L1298.83,689.041L686.738,689.041L686.738,2700.21L1298.83,2700.21Z" style="fill:rgb(33,60,196);stroke:rgb(37,49,109);stroke-width:1px;stroke-linecap:butt;stroke-linejoin:miter;stroke-miterlimit:10;"/>
                </g>
            </g>
        </g>
    </g>
</svg>
